# xmcd
#
# Track frame offsets: 
#        150
#        450
#        18158
#        54168
#        109810
#        136907
#        160826
#
# Disc length: 2700 seconds
#
# Revision: 0
# Processed by: cddbd v1.5.2PL0 Copyright (c) Steve Scherf et al.
# Submitted via: ExactAudioCopy v1.1
#
DISCID=450a8a07
DTITLE=The BluesBones - Double Live [disk 2]
DYEAR=2016
DGENRE=Blues Rock
TTITLE0=Broken Down Car
TTITLE1=I Try
TTITLE2=Runaway
TTITLE3=Wrong
TTITLE4=Cruisin'
TTITLE5=Devil's Bride
TTITLE6=Whiskey Drinking Woman
EXTD=
EXTT0=
EXTT1=
EXTT2=
EXTT3=
EXTT4=
EXTT5=
EXTT6=
PLAYORDER=
